<svg height="2.5rem" viewBox="0 0 466 107" fill="none" xmlns="http://www.w3.org/2000/svg"><mask id="mask0_1_253" maskUnits="userSpaceOnUse" x="0" y="16" width="92" height="91" style="mask-type: luminance;"><path d="M0 16.9447H91.2656V106.986H0V16.9447Z" fill="white"></path></mask><g><mask id="mask1_1_253" maskUnits="userSpaceOnUse" x="-69" y="-207" width="601" height="601" style="mask-type: luminance;"><path d="M531.932 -206.389H-68.0677V393.611H531.932V-206.389Z" fill="black" fillOpacity="0.7"></path></mask><g><mask id="mask2_1_253" maskUnits="userSpaceOnUse" x="-1" y="16" width="93" height="92" style="mask-type: luminance;"><path d="M91.2656 16.9447H-0.734375V107.611H91.2656V16.9447Z" fill="white"></path></mask><g><mask id="mask3_1_253" maskUnits="userSpaceOnUse" x="0" y="17" width="90" height="90" style="mask-type: luminance;"><path d="M0 17.0489H89.9323V106.986H0V17.0489Z" fill="white"></path></mask><g><path d="M89.8958 74.6322C89.8958 83.2833 86.5312 91.4135 80.4167 97.5281C74.1042 103.835 65.8125 106.992 57.5208 106.992C49.2292 106.992 40.9427 103.835 34.6302 97.5281L9.5 72.3979C3.38542 66.2833 0.015625 58.1531 0.015625 49.502C0.015625 40.8562 3.38542 32.726 9.5 26.6114C22.125 13.9864 42.6615 13.9864 55.2865 26.6114L80.4167 51.7416C86.5312 57.8562 89.8958 65.9864 89.8958 74.6322Z" fill="#085FCE"></path></g></g></g></g><mask id="mask4_1_253" maskUnits="userSpaceOnUse" x="24" y="15" width="91" height="92" style="mask-type: luminance;"><path d="M24.599 15.6113H115V106.986H24.599V15.6113Z" fill="white"></path></mask><g><mask id="mask5_1_253" maskUnits="userSpaceOnUse" x="-69" y="-207" width="601" height="601" style="mask-type: luminance;"><path d="M531.932 -206.389H-68.0677V393.611H531.932V-206.389Z" fill="black" fillOpacity="0.7"></path></mask><g><mask id="mask6_1_253" maskUnits="userSpaceOnUse" x="24" y="15" width="92" height="93" style="mask-type: luminance;"><path d="M115.266 15.6113H24.599V107.611H115.266V15.6113Z" fill="white"></path></mask><g><mask id="mask7_1_253" maskUnits="userSpaceOnUse" x="24" y="16" width="91" height="91" style="mask-type: luminance;"><path d="M24.8125 16.9446H115V106.986H24.8125V16.9446Z" fill="white"></path></mask><g><path d="M115.203 49.502C115.203 58.153 111.833 66.2832 105.719 72.3978L80.5886 97.528C74.2761 103.835 65.9896 106.992 57.6979 106.992C49.4063 106.992 41.1146 103.835 34.8021 97.528C28.6875 91.4134 25.3229 83.2832 25.3229 74.6322C25.3229 65.9863 28.6875 57.8561 34.8021 51.7415L59.9323 26.6113C72.5573 13.9863 93.0938 13.9863 105.719 26.6113C111.833 32.7259 115.203 40.8561 115.203 49.502Z" fill="#3DE2FF"></path></g></g></g></g><path d="M154.494 32.7032H170.285L191.66 92.5157H178.41L174.556 81.4116H150.223L146.369 92.5157H133.119L154.494 32.7032ZM170.39 69.8699L162.598 47.2241H162.181L154.41 69.8699H170.39Z" fill="white"></path><path d="M194.639 47.224H204.889L206.181 52.3699H206.597C208.082 50.4272 209.847 48.9428 211.889 47.9115C213.941 46.8855 216.165 46.3699 218.556 46.3699C221.014 46.3699 223.264 46.7865 225.306 47.6199C227.358 48.4428 229.108 49.6511 230.556 51.2449C232.014 52.8438 233.149 54.7657 233.972 57.0157C234.806 59.2657 235.222 61.8438 235.222 64.7449V92.5157H223.264V66.4532C223.264 63.4428 222.545 61.1199 221.118 59.4949C219.701 57.8699 217.707 57.0574 215.139 57.0574C212.582 57.0574 210.519 57.9272 208.951 59.6615C207.378 61.4011 206.597 63.6615 206.597 66.4532V92.5157H194.639V47.224Z" fill="white"></path><path d="M260.856 93.3699C257.949 93.3699 255.298 92.8699 252.897 91.8699C250.507 90.8699 248.444 89.3803 246.71 87.3907C244.97 85.3907 243.616 82.9428 242.647 80.0366C241.689 77.1355 241.21 73.7449 241.21 69.8699C241.21 66.0522 241.689 62.6772 242.647 59.7449C243.616 56.8178 244.97 54.3595 246.71 52.3699C248.444 50.3699 250.507 48.8699 252.897 47.8699C255.298 46.8699 257.949 46.3699 260.856 46.3699C262.564 46.3699 264.085 46.5574 265.418 46.9324C266.762 47.3074 267.944 47.7814 268.96 48.3491C269.986 48.922 270.84 49.5314 271.522 50.1824C272.215 50.8387 272.783 51.422 273.231 51.9324H273.668V32.7032H285.626V92.5157H275.376L274.085 87.3907H273.668C273.043 88.1303 272.314 88.8595 271.481 89.5782C270.658 90.2866 269.736 90.9272 268.71 91.4949C267.678 92.0678 266.512 92.5157 265.21 92.8491C263.902 93.1928 262.449 93.3699 260.856 93.3699ZM263.418 82.6824C264.777 82.6824 266.085 82.448 267.335 81.9741C268.595 81.4897 269.694 80.7189 270.626 79.6616C271.569 78.6095 272.314 77.2657 272.856 75.6407C273.397 74.0157 273.668 72.0939 273.668 69.8699C273.668 67.6512 273.397 65.7345 272.856 64.1199C272.314 62.4949 271.569 61.1564 270.626 60.0991C269.694 59.047 268.595 58.2762 267.335 57.7866C266.085 57.3022 264.777 57.0574 263.418 57.0574C262.043 57.0574 260.731 57.3022 259.481 57.7866C258.231 58.2762 257.132 59.047 256.189 60.0991C255.257 61.1564 254.522 62.4949 253.981 64.1199C253.439 65.7345 253.168 67.6512 253.168 69.8699C253.168 72.0939 253.439 74.0157 253.981 75.6407C254.522 77.2657 255.257 78.6095 256.189 79.6616C257.132 80.7189 258.231 81.4897 259.481 81.9741C260.731 82.448 262.043 82.6824 263.418 82.6824Z" fill="white"></path><path d="M294.594 47.2241H304.844L306.135 52.3699H306.552C307.87 50.4272 309.437 49.0886 311.26 48.3491C313.078 47.5991 315.073 47.2241 317.239 47.2241H322.781V58.7657H318.094C314.437 58.7657 311.599 59.7657 309.573 61.7657C307.557 63.7553 306.552 66.4532 306.552 69.8699V92.5157H294.594V47.2241Z" fill="white"></path><path d="M347.568 93.3699C344.151 93.3699 341.073 92.8386 338.339 91.7865C335.599 90.7345 333.261 89.2136 331.318 87.224C329.386 85.224 327.906 82.7761 326.88 79.8699C325.865 76.9688 325.359 73.6355 325.359 69.8699C325.359 66.1199 325.865 62.797 326.88 59.8907C327.906 56.974 329.386 54.5261 331.318 52.5365C333.261 50.5365 335.599 49.0105 338.339 47.9532C341.073 46.9011 344.151 46.3699 347.568 46.3699C350.87 46.3699 353.859 46.9272 356.526 48.0365C359.203 49.1511 361.495 50.7188 363.401 52.7449C365.318 54.7761 366.787 57.172 367.818 59.9324C368.844 62.6824 369.359 65.7136 369.359 69.0157C369.359 69.6407 369.323 70.2397 369.255 70.8074C369.198 71.3803 369.141 71.8907 369.089 72.349C369.031 72.8647 368.974 73.323 368.922 73.724H337.734C338.193 76.2813 339.182 78.4115 340.714 80.1199C342.255 81.8282 344.537 82.6824 347.568 82.6824C349.901 82.6824 351.62 82.3022 352.734 81.5365C353.844 80.7761 354.823 79.7345 355.672 78.4115H368.505C367.99 80.3595 367.203 82.224 366.151 84.0157C365.094 85.8074 363.724 87.4063 362.047 88.8074C360.365 90.198 358.323 91.3074 355.922 92.1407C353.531 92.9584 350.745 93.3699 347.568 93.3699ZM356.964 64.7449C356.74 63.7761 356.386 62.8386 355.901 61.9324C355.412 61.0157 354.781 60.1928 354.005 59.4532C353.24 58.7188 352.318 58.1355 351.234 57.7032C350.151 57.2761 348.927 57.0574 347.568 57.0574C344.776 57.0574 342.594 57.8022 341.026 59.2865C339.453 60.7605 338.359 62.5782 337.734 64.7449H356.964Z" fill="white"></path><path d="M371.066 47.2241H383.441L391.128 77.5574H391.566L399.253 47.2241H411.628L419.336 77.5574H419.753L427.441 47.2241H438.982L426.586 92.5157H413.336L405.649 63.8907H405.232L397.545 92.5157H383.441L371.066 47.2241Z" fill="white"></path><path d="M451.048 28.6875C448.949 28.6875 447.016 28.3385 445.256 27.6458C443.506 26.9375 441.99 25.9479 440.714 24.6667C439.449 23.3906 438.464 21.875 437.756 20.125C437.058 18.375 436.714 16.4531 436.714 14.3542C436.714 12.2604 437.058 10.3333 437.756 8.58333C438.464 6.82292 439.449 5.30729 440.714 4.04167C441.99 2.76563 443.506 1.77083 445.256 1.0625C447.016 0.354167 448.949 0 451.048 0C453.141 0 455.068 0.354167 456.818 1.0625C458.568 1.77083 460.079 2.76563 461.36 4.04167C462.636 5.30729 463.62 6.82292 464.318 8.58333C465.027 10.3333 465.381 12.2604 465.381 14.3542C465.381 16.4531 465.027 18.375 464.318 20.125C463.62 21.875 462.636 23.3906 461.36 24.6667C460.079 25.9479 458.568 26.9375 456.818 27.6458C455.068 28.3385 453.141 28.6875 451.048 28.6875ZM451.048 25.1042C452.589 25.1042 453.995 24.849 455.277 24.3333C456.568 23.8073 457.683 23.0729 458.631 22.125C459.574 21.1667 460.303 20.0365 460.818 18.7292C461.344 17.4115 461.61 15.9531 461.61 14.3542C461.61 12.7604 461.344 11.3073 460.818 10C460.303 8.68229 459.574 7.54167 458.631 6.58333C457.683 5.625 456.568 4.89063 455.277 4.375C453.995 3.86458 452.589 3.60417 451.048 3.60417C449.506 3.60417 448.089 3.86458 446.798 4.375C445.516 4.89063 444.407 5.625 443.464 6.58333C442.516 7.54167 441.782 8.68229 441.256 10C440.74 11.3073 440.485 12.7604 440.485 14.3542C440.485 15.9531 440.74 17.4115 441.256 18.7292C441.782 20.0365 442.516 21.1667 443.464 22.125C444.407 23.0729 445.516 23.8073 446.798 24.3333C448.089 24.849 449.506 25.1042 451.048 25.1042ZM451.048 21.9167C448.839 21.9167 447.089 21.2656 445.798 19.9583C444.516 18.6406 443.881 16.7708 443.881 14.3542C443.881 11.9375 444.516 10.0781 445.798 8.77083C447.089 7.45313 448.839 6.79167 451.048 6.79167C452.032 6.79167 452.902 6.9375 453.652 7.22917C454.412 7.52083 455.068 7.91146 455.61 8.39583C456.152 8.88542 456.579 9.4375 456.902 10.0625C457.219 10.6875 457.454 11.3229 457.61 11.9583H454.027C453.818 11.4583 453.464 11 452.964 10.5833C452.475 10.1667 451.839 9.95833 451.048 9.95833C449.933 9.95833 449.058 10.3125 448.423 11.0208C447.782 11.7292 447.464 12.8438 447.464 14.3542C447.464 15.8698 447.782 16.9792 448.423 17.6875C449.058 18.3854 449.933 18.7292 451.048 18.7292C451.839 18.7292 452.475 18.5313 452.964 18.125C453.464 17.7083 453.818 17.25 454.027 16.75H457.61C457.454 17.375 457.219 18 456.902 18.625C456.579 19.25 456.152 19.8125 455.61 20.3125C455.068 20.8021 454.412 21.1875 453.652 21.4792C452.902 21.7708 452.032 21.9167 451.048 21.9167Z" fill="white"></path></svg>